<?xml version="1.0" standalone="no"?><svg xmlns="http://www.w3.org/2000/svg" viewBox="0 0 1440 320"><path fill="#0099ff" fill-opacity="1" d="M0,256L10.9,229.3C21.8,203,44,149,65,154.7C87.3,160,109,224,131,229.3C152.7,235,175,181,196,160C218.2,139,240,149,262,165.3C283.6,181,305,203,327,202.7C349.1,203,371,181,393,165.3C414.5,149,436,139,458,117.3C480,96,502,64,524,90.7C545.5,117,567,203,589,224C610.9,245,633,203,655,170.7C676.4,139,698,117,720,128C741.8,139,764,181,785,213.3C807.3,245,829,267,851,245.3C872.7,224,895,160,916,117.3C938.2,75,960,53,982,85.3C1003.6,117,1025,203,1047,240C1069.1,277,1091,267,1113,266.7C1134.5,267,1156,277,1178,277.3C1200,277,1222,267,1244,224C1265.5,181,1287,107,1309,74.7C1330.9,43,1353,53,1375,80C1396.4,107,1418,149,1429,170.7L1440,192L1440,320L1429.1,320C1418.2,320,1396,320,1375,320C1352.7,320,1331,320,1309,320C1287.3,320,1265,320,1244,320C1221.8,320,1200,320,1178,320C1156.4,320,1135,320,1113,320C1090.9,320,1069,320,1047,320C1025.5,320,1004,320,982,320C960,320,938,320,916,320C894.5,320,873,320,851,320C829.1,320,807,320,785,320C763.6,320,742,320,720,320C698.2,320,676,320,655,320C632.7,320,611,320,589,320C567.3,320,545,320,524,320C501.8,320,480,320,458,320C436.4,320,415,320,393,320C370.9,320,349,320,327,320C305.5,320,284,320,262,320C240,320,218,320,196,320C174.5,320,153,320,131,320C109.1,320,87,320,65,320C43.6,320,22,320,11,320L0,320Z"></path></svg>